<svg
  width="1024"
  height="1024"
  viewBox="0 0 1024 1024"
  fill="none"
  xmlns="http://www.w3.org/2000/svg"
>
  <circle cx="512" cy="512" r="512" fill="#E22626" />
  <path
    id="e"
    d="M341.787 232H480V328.328H355.809C355.809 328.328 350.518 328.328 343.003 330.5C338.126 331.91 335.403 332.968 331.003 335.5C322.972 340.123 318.64 343.918 313.744 351.786C308.693 359.904 306.72 365.683 306.733 375.244C306.743 382.433 310.007 389.359 313.744 395.5C318.004 402.5 334.003 412 342.003 415.5C350.003 419 363.503 422.5 372.003 424C380.502 425.5 390.502 425.5 390.502 425.5H480V527.971H373.336C373.336 527.971 348.003 527.971 332.503 535C317.004 542.029 308.504 546.5 295.716 561.412C282.929 576.324 277.049 590.41 276.186 611.323C275.653 624.241 276.291 632.169 281.505 644C287.038 656.557 292.737 663.001 303.729 671.216C321.504 684.5 331.615 691.332 355.809 694.5C380.002 697.668 398.875 697.668 398.875 697.668H480V792H355.809C355.809 792 335.003 792 295.716 782.018C271.738 775.925 266.603 773.055 249.993 763.773L249.505 763.5C232.506 754 224.603 747.306 212.088 733.105C194.663 713.333 185.363 700.95 175.031 676.706C164.684 652.43 159.783 637.212 160.007 610.824C160.224 585.385 164.254 570.481 175.031 547.437C185.38 525.304 194.423 513.907 212.088 497.027C224.6 485.07 247.642 470.574 247.642 470.574C247.642 470.574 222.78 453.252 212.088 437.633C203.854 425.606 200.711 417.666 196.564 403.693C192.414 389.713 191.018 381.342 191.055 366.759C191.103 347.873 193.297 336.773 200.57 319.344C209.438 298.092 218.7 287.545 235.624 271.929C251.636 257.153 260.888 251.964 282.696 241.982C304.504 232 341.787 232 341.787 232Z"
  />
  <path
    id="b"
    fill-rule="evenodd"
    clip-rule="evenodd"
    d="M676.013 232H600.923H512V792H600.923H714.053C714.053 792 781.239 786 825.206 733C869.174 680 863.739 620 863.739 620C863.739 620 867.198 578.5 848.919 539.5C830.64 500.5 783.215 479.5 783.215 479.5C783.215 479.5 801.825 454.851 808.41 436.5C815.144 417.732 816.314 386 816.314 386C816.314 386 823.724 325.5 783.215 280.5C742.705 235.5 676.013 232 676.013 232ZM692.889 701.5H602.933V619.5V537.5H688.489C688.489 537.5 703.156 537.5 715.867 542C727.878 546.252 741.642 553.786 750.089 563.5C757.807 572.375 761.284 582 763.778 590.5C766.711 600.5 768.018 608.04 768.178 619.5C768.353 632.118 767.921 639.613 763.778 651.5C759.635 663.387 756.942 667.497 750.089 676C741.44 686.731 728.968 695.278 715.867 699C707.067 701.5 692.889 701.5 692.889 701.5ZM602.933 447.5V324H669.911C669.911 324 679.689 323 689.956 327.5C700.222 332 705.917 336.208 711.956 343C717.653 349.408 719.713 354.826 723.039 363.576L723.039 363.576L723.2 364C726.622 373 726.622 385.5 726.622 385.5C726.622 385.5 726.622 399 723.2 410C720.727 417.949 717.343 423.237 711.956 429.5C705.12 437.446 700.591 440.698 690.933 444.5C683.197 447.546 669.911 447.5 669.911 447.5H602.933Z"
  />

  <style>
    circle {
      fill: #e22626;
    }
    #e {
      fill: #550505;
    }
    #b {
      fill: #ffffff;
    }
    @media (prefers-color-scheme: dark) {
      circle {
        fill: #ffffff;
      }
      #e {
        fill: #24d5ca;
      }
      #b {
        fill: #000000;
      }
    }
  </style>
</svg>
